<?xml version="1.0" encoding="UTF-8" standalone="no"?>
<!DOCTYPE svg PUBLIC "-//W3C//DTD SVG 1.1//EN" "http://www.w3.org/Graphics/SVG/1.1/DTD/svg11.dtd">
<svg xmlns="http://www.w3.org/2000/svg" version="1.1" viewBox="0.00 0.00 512.00 512.00">
<g stroke-width="2.00" fill="none" stroke-linecap="butt">
<path stroke="#f15369" vector-effect="non-scaling-stroke" d="
  M 147.31 50.59
  Q 139.05 51.57 130.90 50.93
  Q 130.42 50.89 130.22 50.46
  Q 129.77 49.45 129.52 50.29"
/>
<path stroke="#f15369" vector-effect="non-scaling-stroke" d="
  M 95.98 52.32
  Q 95.59 52.06 95.62 51.35
  Q 95.64 50.92 95.21 50.96
  Q 87.59 51.59 80.01 50.68"
/>
<path stroke="#f15369" vector-effect="non-scaling-stroke" d="
  M 33.15 51.60
  Q 32.97 51.38 32.61 51.35
  Q 32.12 51.30 32.12 51.79
  L 32.12 52.48
  Q 32.11 52.87 31.81 52.62
  Q 31.66 52.50 31.50 52.38
  Q 31.16 52.12 30.73 52.12
  L 17.47 52.12
  Q 16.89 52.12 16.71 52.67
  Q 16.54 53.15 16.11 53.25"
/>
<path stroke="#e85983" vector-effect="non-scaling-stroke" d="
  M 122.88 80.92
  Q 122.85 81.54 122.48 81.77
  Q 122.20 81.95 121.97 81.72
  L 121.73 81.48
  Q 121.33 81.08 120.77 81.10
  L 105.02 81.60"
/>
<path stroke="#e85983" vector-effect="non-scaling-stroke" d="
  M 156.69 84.10
  L 142.20 84.12
  Q 141.70 84.12 141.35 84.47
  L 140.45 85.35"
/>
<path stroke="#df5f9e" vector-effect="non-scaling-stroke" d="
  M 141.39 145.79
  L 124.78 145.87"
/>
<path stroke="#df5f9e" vector-effect="non-scaling-stroke" d="
  M 485.88 131.25
  L 469.64 131.12"
/>
<path stroke="#df5f9e" vector-effect="non-scaling-stroke" d="
  M 430.14 129.98
  Q 423.26 130.20 416.28 130.15
  Q 414.83 130.13 414.28 130.93
  Q 413.74 131.70 413.29 133.11"
/>
<path stroke="#df5f9e" vector-effect="non-scaling-stroke" d="
  M 366.79 132.13
  Q 360.46 130.38 352.33 131.16
  Q 351.88 131.20 351.46 131.01
  L 350.91 130.77"
/>
<path stroke="#df5f9e" vector-effect="non-scaling-stroke" d="
  M 288.81 128.56
  L 288.49 128.32
  Q 288.12 128.04 288.12 128.50
  L 288.12 129.46
  Q 288.12 130.14 287.44 130.15
  L 273.00 130.49"
/>
<path stroke="#df5f9e" vector-effect="non-scaling-stroke" d="
  M 226.28 131.32
  L 211.81 131.16
  Q 211.48 131.16 211.39 131.48
  L 211.27 131.98
  Q 211.07 132.78 210.64 132.08
  Q 210.37 131.64 210.08 131.54"
/>
<path stroke="#df5f9e" vector-effect="non-scaling-stroke" d="
  M 169.60 130.02
  L 152.98 129.85"
/>
<path stroke="#b976e6" vector-effect="non-scaling-stroke" d="
  M 458.57 267.84
  L 442.27 267.77"
/>
<path stroke="#b976e6" vector-effect="non-scaling-stroke" d="
  M 402.51 268.22
  L 386.25 268.07"
/>
<path stroke="#b976e6" vector-effect="non-scaling-stroke" d="
  M 353.81 261.87
  Q 352.85 261.45 352.63 260.47
  Q 352.56 260.12 352.20 260.12
  L 338.89 260.12
  Q 338.40 260.12 338.38 260.61
  Q 338.35 262.22 337.90 261.04"
/>
<path stroke="#b976e6" vector-effect="non-scaling-stroke" d="
  M 301.35 260.18
  L 285.36 260.35"
/>
<path stroke="#b976e6" vector-effect="non-scaling-stroke" d="
  M 252.21 267.63
  L 238.07 267.86
  Q 237.55 267.87 237.21 268.26
  L 236.30 269.29"
/>
<path stroke="#b976e6" vector-effect="non-scaling-stroke" d="
  M 208.58 268.62
  Q 200.39 267.33 191.86 268.06"
/>
<path stroke="#d864b3" vector-effect="non-scaling-stroke" d="
  M 146.52 163.84
  L 130.20 164.71"
/>
<path stroke="#d864b3" vector-effect="non-scaling-stroke" d="
  M 182.18 174.73
  L 181.44 174.61
  Q 180.88 174.51 181.19 174.03
  L 181.38 173.75
  A 0.03 0.02 -78.7 0 0 181.36 173.71
  Q 173.91 174.03 166.45 173.84
  Q 165.94 173.82 165.90 174.33
  Q 165.86 174.85 165.68 174.99"
/>
<path stroke="#cf6ace" vector-effect="non-scaling-stroke" d="
  M 158.87 207.03
  Q 158.88 207.35 158.73 207.49
  A 0.32 0.31 -52.0 0 1 158.36 207.54
  L 157.85 207.24
  A 0.66 0.66 0.0 0 0 157.50 207.14
  L 142.36 207.26"
/>
<path stroke="#6e98eb" vector-effect="non-scaling-stroke" d="
  M 183.98 361.77
  Q 176.15 362.62 168.01 361.81"
/>
<path stroke="#9288ec" vector-effect="non-scaling-stroke" d="
  M 183.96 305.03
  Q 183.87 307.05 182.50 307.11
  Q 179.35 307.24 168.01 307.04"
/>
<path stroke="#b976e6" vector-effect="non-scaling-stroke" d="
  M 179.14 277.96
  Q 178.68 278.23 178.26 278.02
  Q 178.10 277.94 178.26 277.87
  Q 178.37 277.81 178.52 277.73
  A 0.46 0.46 0.0 0 0 178.27 276.86
  Q 171.71 277.18 165.23 276.14
  Q 164.72 276.06 164.28 276.34
  L 162.42 277.52"
/>
<path stroke="#9288ec" vector-effect="non-scaling-stroke" d="
  M 216.00 303.55
  L 200.00 304.15"
/>
<path stroke="#6e98eb" vector-effect="non-scaling-stroke" d="
  M 495.84 362.94
  Q 488.64 361.49 480.77 362.29
  Q 480.22 362.34 480.11 361.80
  L 480.00 361.22"
/>
<path stroke="#cf6ace" vector-effect="non-scaling-stroke" d="
  M 470.12 210.07
  L 453.94 209.61"
/>
<path stroke="#cf6ace" vector-effect="non-scaling-stroke" d="
  M 414.14 210.01
  L 397.95 209.60"
/>
<path stroke="#cf6ace" vector-effect="non-scaling-stroke" d="
  M 357.82 221.76
  L 356.62 220.22
  Q 356.31 219.82 355.81 219.80
  L 342.03 219.39"
/>
<path stroke="#cf6ace" vector-effect="non-scaling-stroke" d="
  M 298.27 227.46
  L 283.06 227.79
  Q 282.96 227.79 282.90 227.86
  Q 282.79 227.96 282.69 228.06
  Q 282.62 228.14 282.62 228.04
  Q 282.67 227.42 282.23 227.46"
/>
<path stroke="#cf6ace" vector-effect="non-scaling-stroke" d="
  M 241.50 211.19
  Q 233.21 210.28 225.31 211.42"
/>
<path stroke="#cf6ace" vector-effect="non-scaling-stroke" d="
  M 192.24 210.55
  L 175.86 211.14"
/>
<path stroke="#4da7eb" vector-effect="non-scaling-stroke" d="
  M 491.74 402.50
  Q 491.39 403.02 491.29 403.64
  Q 491.21 404.15 490.69 404.16
  L 475.07 404.55"
/>
<path stroke="#4da7eb" vector-effect="non-scaling-stroke" d="
  M 405.04 404.36
  L 387.85 403.78"
/>
<path stroke="#4da7eb" vector-effect="non-scaling-stroke" d="
  M 247.25 415.08
  Q 238.85 414.30 231.19 415.49"
/>
<path stroke="#4da7eb" vector-effect="non-scaling-stroke" d="
  M 157.72 403.19
  L 140.21 402.61"
/>
<path stroke="#d864b3" vector-effect="non-scaling-stroke" d="
  M 421.31 174.12
  L 405.10 173.87"
/>
<path stroke="#d864b3" vector-effect="non-scaling-stroke" d="
  M 293.11 173.76
  Q 292.85 173.71 292.75 172.89
  A 0.19 0.18 41.7 0 0 292.38 172.91
  L 292.38 173.50
  A 0.38 0.38 0.0 0 1 292.00 173.88
  L 278.74 173.88
  Q 278.13 173.88 278.10 174.49
  Q 277.98 176.67 277.33 175.98"
/>
<path stroke="#d864b3" vector-effect="non-scaling-stroke" d="
  M 362.60 174.15
  L 348.15 173.95
  Q 347.57 173.95 347.37 174.49
  Q 346.72 176.28 346.48 175.20"
/>
<path stroke="#d864b3" vector-effect="non-scaling-stroke" d="
  M 234.36 173.79
  Q 233.99 174.08 233.76 173.26
  A 0.14 0.13 -39.6 0 0 233.51 173.24
  Q 233.44 173.39 233.37 173.54
  Q 233.24 173.88 232.87 173.88
  L 219.72 173.88
  Q 219.06 173.88 219.11 174.53
  L 219.20 175.82
  Q 219.22 176.12 218.93 176.13
  Q 218.39 176.17 218.02 176.00"
/>
<path stroke="#d864b3" vector-effect="non-scaling-stroke" d="
  M 477.22 174.55
  Q 469.67 173.12 461.01 174.24"
/>
<path stroke="#2cb6ea" vector-effect="non-scaling-stroke" d="
  M 406.07 445.29
  L 388.18 445.28"
/>
<path stroke="#2cb6ea" vector-effect="non-scaling-stroke" d="
  M 156.72 442.97
  L 139.34 443.36"
/>
<path stroke="#2cb6ea" vector-effect="non-scaling-stroke" d="
  M 238.41 455.35
  Q 226.48 453.72 215.88 456.14"
/>
<path stroke="#2cb6ea" vector-effect="non-scaling-stroke" d="
  M 486.36 455.39
  Q 475.79 454.28 465.78 455.23
  A 0.32 0.32 0.0 0 0 465.67 455.84
  Q 465.79 455.89 465.96 455.83
  Q 466.49 455.63 466.12 455.85
  Q 465.13 456.47 463.84 456.19"
/>
<path stroke="#4da7eb" vector-effect="non-scaling-stroke" d="
  M 214.39 415.21
  L 169.89 414.78"
/>
<path stroke="#4da7eb" vector-effect="non-scaling-stroke" d="
  M 462.24 414.86
  L 417.95 414.66"
/>
</g>
<path fill="#f4505f" d="
  M 147.31 50.59
  Q 139.05 51.57 130.90 50.93
  Q 130.42 50.89 130.22 50.46
  Q 129.77 49.45 129.52 50.29
  Q 127.03 48.00 124.50 48.00
  Q 110.53 47.99 96.54 48.00
  Q 96.03 48.00 96.02 48.52
  L 95.98 52.32
  Q 95.59 52.06 95.62 51.35
  Q 95.64 50.92 95.21 50.96
  Q 87.59 51.59 80.01 50.68
  L 79.99 48.53
  Q 79.98 48.01 79.46 48.01
  Q 59.22 47.98 39.00 48.01
  Q 35.98 48.02 33.15 51.60
  Q 32.97 51.38 32.61 51.35
  Q 32.12 51.30 32.12 51.79
  L 32.12 52.48
  Q 32.11 52.87 31.81 52.62
  Q 31.66 52.50 31.50 52.38
  Q 31.16 52.12 30.73 52.12
  L 17.47 52.12
  Q 16.89 52.12 16.71 52.67
  Q 16.54 53.15 16.11 53.25
  Q 18.88 37.90 32.40 33.34
  Q 36.30 32.03 43.27 32.02
  Q 80.74 31.98 118.22 32.00
  Q 127.88 32.01 132.09 33.50
  Q 143.23 37.44 147.31 50.59
  Z"
/>
<path fill="#ee5572" d="
  M 147.31 50.59
  L 156.69 84.10
  L 142.20 84.12
  Q 141.70 84.12 141.35 84.47
  L 140.45 85.35
  Q 134.11 62.28 131.18 52.75
  Q 130.85 51.66 129.52 50.29
  Q 129.77 49.45 130.22 50.46
  Q 130.42 50.89 130.90 50.93
  Q 139.05 51.57 147.31 50.59
  Z"
/>
<path fill="#ee5572" d="
  M 95.98 52.32
  L 96.02 63.43
  Q 96.02 63.98 96.56 63.96
  Q 116.22 63.31 122.88 80.92
  Q 122.85 81.54 122.48 81.77
  Q 122.20 81.95 121.97 81.72
  L 121.73 81.48
  Q 121.33 81.08 120.77 81.10
  L 105.02 81.60
  Q 102.17 80.01 101.25 80.01
  Q 73.37 80.01 45.49 79.99
  Q 35.86 79.98 31.70 78.50
  C 21.36 74.80 15.13 64.35 16.11 53.25
  Q 16.54 53.15 16.71 52.67
  Q 16.89 52.12 17.47 52.12
  L 30.73 52.12
  Q 31.16 52.12 31.50 52.38
  Q 31.66 52.50 31.81 52.62
  Q 32.11 52.87 32.12 52.48
  L 32.12 51.79
  Q 32.12 51.30 32.61 51.35
  Q 32.97 51.38 33.15 51.60
  C 29.89 59.51 34.44 64.01 41.89 64.01
  Q 60.66 64.01 79.47 64.00
  Q 79.99 64.00 79.99 63.47
  L 80.01 50.68
  Q 87.59 51.59 95.21 50.96
  Q 95.64 50.92 95.62 51.35
  Q 95.59 52.06 95.98 52.32
  Z"
/>
<path fill="#e25c93" d="
  M 122.88 80.92
  L 141.39 145.79
  L 124.78 145.87
  Q 116.13 115.15 107.24 84.75
  Q 106.98 83.86 105.02 81.60
  L 120.77 81.10
  Q 121.33 81.08 121.73 81.48
  L 121.97 81.72
  Q 122.20 81.95 122.48 81.77
  Q 122.85 81.54 122.88 80.92
  Z"
/>
<path fill="#e25c93" d="
  M 156.69 84.10
  L 164.43 111.66
  Q 164.52 112.00 164.88 112.00
  Q 321.11 112.00 477.21 112.00
  C 491.42 112.00 487.88 122.25 485.88 131.25
  L 469.64 131.12
  L 470.16 128.50
  Q 470.26 128.00 469.75 128.00
  L 430.98 128.00
  Q 430.49 128.00 430.41 128.48
  L 430.14 129.98
  Q 423.26 130.20 416.28 130.15
  Q 414.83 130.13 414.28 130.93
  Q 413.74 131.70 413.29 133.11
  L 414.15 128.49
  Q 414.24 128.00 413.74 128.00
  L 367.74 128.00
  Q 367.22 128.00 367.17 128.52
  L 366.79 132.13
  Q 360.46 130.38 352.33 131.16
  Q 351.88 131.20 351.46 131.01
  L 350.91 130.77
  L 351.14 128.43
  A 0.40 0.39 2.6 0 0 350.74 128.00
  L 289.01 128.00
  Q 288.80 128.00 288.74 128.20
  Q 288.58 128.67 288.81 128.56
  L 288.49 128.32
  Q 288.12 128.04 288.12 128.50
  L 288.12 129.46
  Q 288.12 130.14 287.44 130.15
  L 273.00 130.49
  L 272.78 128.48
  Q 272.73 128.00 272.25 128.00
  L 226.23 128.00
  Q 225.65 128.00 225.76 128.56
  L 226.28 131.32
  L 211.81 131.16
  Q 211.48 131.16 211.39 131.48
  L 211.27 131.98
  Q 211.07 132.78 210.64 132.08
  Q 210.37 131.64 210.08 131.54
  L 209.52 128.60
  Q 209.40 128.00 208.79 128.00
  L 169.69 128.00
  Q 169.08 128.00 169.23 128.60
  L 169.60 130.02
  L 152.98 129.85
  L 140.45 85.35
  L 141.35 84.47
  Q 141.70 84.12 142.20 84.12
  L 156.69 84.10
  Z"
/>
<path fill="#db61a9" d="
  M 288.81 128.56
  L 293.11 173.76
  Q 292.85 173.71 292.75 172.89
  A 0.19 0.18 41.7 0 0 292.38 172.91
  L 292.38 173.50
  A 0.38 0.38 0.0 0 1 292.00 173.88
  L 278.74 173.88
  Q 278.13 173.88 278.10 174.49
  Q 277.98 176.67 277.33 175.98
  L 273.00 130.49
  L 287.44 130.15
  Q 288.12 130.14 288.12 129.46
  L 288.12 128.50
  Q 288.12 128.04 288.49 128.32
  L 288.81 128.56
  Z"
/>
<path fill="#db61a9" d="
  M 152.98 129.85
  L 169.60 130.02
  L 182.18 174.73
  L 181.44 174.61
  Q 180.88 174.51 181.19 174.03
  L 181.38 173.75
  A 0.03 0.02 -78.7 0 0 181.36 173.71
  Q 173.91 174.03 166.45 173.84
  Q 165.94 173.82 165.90 174.33
  Q 165.86 174.85 165.68 174.99
  L 152.98 129.85
  Z"
/>
<path fill="#db61a9" d="
  M 430.14 129.98
  L 421.31 174.12
  L 405.10 173.87
  L 413.29 133.11
  Q 413.74 131.70 414.28 130.93
  Q 414.83 130.13 416.28 130.15
  Q 423.26 130.20 430.14 129.98
  Z"
/>
<path fill="#db61a9" d="
  M 226.28 131.32
  L 234.36 173.79
  Q 233.99 174.08 233.76 173.26
  A 0.14 0.13 -39.6 0 0 233.51 173.24
  Q 233.44 173.39 233.37 173.54
  Q 233.24 173.88 232.87 173.88
  L 219.72 173.88
  Q 219.06 173.88 219.11 174.53
  L 219.20 175.82
  Q 219.22 176.12 218.93 176.13
  Q 218.39 176.17 218.02 176.00
  Q 218.29 176.19 218.43 175.92
  Q 218.50 175.78 218.46 175.58
  Q 214.28 153.56 210.08 131.54
  Q 210.37 131.64 210.64 132.08
  Q 211.07 132.78 211.27 131.98
  L 211.39 131.48
  Q 211.48 131.16 211.81 131.16
  L 226.28 131.32
  Z"
/>
<path fill="#db61a9" d="
  M 350.91 130.77
  L 351.46 131.01
  Q 351.88 131.20 352.33 131.16
  Q 360.46 130.38 366.79 132.13
  L 362.60 174.15
  L 348.15 173.95
  Q 347.57 173.95 347.37 174.49
  Q 346.72 176.28 346.48 175.20
  L 350.91 130.77
  Z"
/>
<path fill="#db61a9" d="
  M 469.64 131.12
  L 485.88 131.25
  L 477.22 174.55
  Q 469.67 173.12 461.01 174.24
  L 469.64 131.12
  Z"
/>
<path fill="#db61a9" d="
  M 124.78 145.87
  L 141.39 145.79
  L 146.52 163.84
  L 130.20 164.71
  L 124.78 145.87
  Z"
/>
<path fill="#d466bd" d="
  M 146.52 163.84
  L 158.87 207.03
  Q 158.88 207.35 158.73 207.49
  A 0.32 0.31 -52.0 0 1 158.36 207.54
  L 157.85 207.24
  A 0.66 0.66 0.0 0 0 157.50 207.14
  L 142.36 207.26
  L 130.20 164.71
  L 146.52 163.84
  Z"
/>
<path fill="#d466bd" d="
  M 293.11 173.76
  L 293.28 175.55
  Q 293.32 176.00 293.77 176.00
  L 346.04 176.00
  Q 346.51 176.00 346.53 175.53
  Q 346.54 175.34 346.48 175.20
  Q 346.72 176.28 347.37 174.49
  Q 347.57 173.95 348.15 173.95
  L 362.60 174.15
  L 362.46 175.45
  Q 362.41 176.00 362.96 176.00
  L 404.23 176.00
  Q 404.67 176.00 404.75 175.57
  L 405.10 173.87
  L 421.31 174.12
  L 421.04 175.48
  Q 420.94 176.00 421.47 176.00
  L 460.01 176.00
  Q 460.53 176.00 460.74 175.52
  Q 461.01 174.89 461.01 174.24
  Q 469.67 173.12 477.22 174.55
  L 470.12 210.07
  L 453.94 209.61
  L 457.35 192.47
  Q 457.44 192.00 456.97 192.00
  L 418.25 192.00
  Q 417.74 192.00 417.64 192.50
  L 414.14 210.01
  L 397.95 209.60
  L 401.35 192.47
  Q 401.44 192.00 400.97 192.00
  L 361.27 192.00
  Q 360.81 192.00 360.76 192.46
  L 357.82 221.76
  L 356.62 220.22
  Q 356.31 219.82 355.81 219.80
  L 342.03 219.39
  L 344.71 192.51
  Q 344.76 192.00 344.24 192.00
  L 295.49 192.00
  Q 294.90 192.00 294.96 192.58
  L 298.27 227.46
  L 283.06 227.79
  Q 282.96 227.79 282.90 227.86
  Q 282.79 227.96 282.69 228.06
  Q 282.62 228.14 282.62 228.04
  Q 282.67 227.42 282.23 227.46
  L 278.90 192.41
  Q 278.86 192.00 278.44 192.00
  L 238.48 192.00
  Q 237.87 192.00 237.98 192.60
  L 241.50 211.19
  Q 233.21 210.28 225.31 211.42
  L 221.72 192.59
  Q 221.61 192.00 221.01 192.00
  L 187.53 192.00
  Q 187.05 192.00 187.18 192.47
  L 192.24 210.55
  L 175.86 211.14
  L 165.68 174.99
  Q 165.86 174.85 165.90 174.33
  Q 165.94 173.82 166.45 173.84
  Q 173.91 174.03 181.36 173.71
  A 0.03 0.02 -39.1 0 1 181.38 173.75
  L 181.19 174.03
  Q 180.88 174.51 181.44 174.61
  L 182.18 174.73
  L 182.33 175.45
  Q 182.44 175.98 182.99 175.98
  L 218.02 176.00
  Q 218.39 176.17 218.93 176.13
  Q 219.22 176.12 219.20 175.82
  L 219.11 174.53
  Q 219.06 173.88 219.72 173.88
  L 232.87 173.88
  Q 233.24 173.88 233.37 173.54
  Q 233.44 173.39 233.51 173.24
  A 0.14 0.13 -39.6 0 1 233.76 173.26
  Q 233.99 174.08 234.36 173.79
  L 234.66 175.47
  Q 234.75 175.97 235.27 175.97
  L 277.33 175.98
  Q 277.98 176.67 278.10 174.49
  Q 278.13 173.88 278.74 173.88
  L 292.00 173.88
  A 0.38 0.38 0.0 0 0 292.38 173.50
  L 292.38 172.91
  A 0.19 0.18 41.7 0 1 292.75 172.89
  Q 292.85 173.71 293.11 173.76
  Z"
/>
<path fill="#c96edf" d="
  M 158.87 207.03
  L 179.14 277.96
  Q 178.68 278.23 178.26 278.02
  Q 178.10 277.94 178.26 277.87
  Q 178.37 277.81 178.52 277.73
  A 0.46 0.46 0.0 0 0 178.27 276.86
  Q 171.71 277.18 165.23 276.14
  Q 164.72 276.06 164.28 276.34
  L 162.42 277.52
  L 142.36 207.26
  L 157.50 207.14
  A 0.66 0.66 0.0 0 1 157.85 207.24
  L 158.36 207.54
  A 0.32 0.31 -52.0 0 0 158.73 207.49
  Q 158.88 207.35 158.87 207.03
  Z"
/>
<path fill="#c96edf" d="
  M 397.95 209.60
  L 414.14 210.01
  L 408.27 239.43
  Q 408.15 240.00 408.74 240.00
  L 447.45 240.00
  Q 447.86 240.00 447.94 239.59
  L 453.94 209.61
  L 470.12 210.07
  L 458.57 267.84
  L 442.27 267.77
  L 444.49 256.58
  Q 444.61 256.00 444.02 256.00
  L 405.49 256.00
  Q 404.96 256.00 404.85 256.53
  L 402.51 268.22
  L 386.25 268.07
  L 388.52 256.62
  Q 388.65 256.00 388.01 256.00
  L 354.79 256.00
  Q 354.38 256.00 354.34 256.42
  L 353.81 261.87
  Q 352.85 261.45 352.63 260.47
  Q 352.56 260.12 352.20 260.12
  L 338.89 260.12
  Q 338.40 260.12 338.38 260.61
  Q 338.35 262.22 337.90 261.04
  L 338.29 256.56
  Q 338.33 256.00 337.77 256.00
  L 301.50 256.00
  Q 301.00 256.00 301.04 256.50
  L 301.35 260.18
  L 285.36 260.35
  L 284.97 256.45
  Q 284.93 256.00 284.48 256.00
  L 250.52 256.00
  Q 250.04 256.00 250.13 256.47
  L 252.21 267.63
  L 238.07 267.86
  Q 237.55 267.87 237.21 268.26
  L 236.30 269.29
  L 233.87 256.51
  Q 233.77 256.00 233.25 256.00
  L 205.53 256.00
  Q 205.05 256.00 205.18 256.46
  L 208.58 268.62
  Q 200.39 267.33 191.86 268.06
  L 175.86 211.14
  L 192.24 210.55
  L 200.40 239.53
  Q 200.53 240.00 201.02 240.00
  L 230.23 240.00
  Q 230.74 240.00 230.64 239.50
  L 225.31 211.42
  Q 233.21 210.28 241.50 211.19
  L 246.89 239.50
  Q 246.99 240.00 247.50 240.00
  L 282.98 240.00
  A 0.39 0.39 0.0 0 0 283.37 239.57
  L 282.23 227.46
  Q 282.67 227.42 282.62 228.04
  Q 282.62 228.14 282.69 228.06
  Q 282.79 227.96 282.90 227.86
  Q 282.96 227.79 283.06 227.79
  L 298.27 227.46
  L 299.39 239.46
  Q 299.44 240.00 299.99 240.00
  L 339.48 240.00
  Q 339.97 240.00 340.01 239.52
  L 342.03 219.39
  L 355.81 219.80
  Q 356.31 219.82 356.62 220.22
  L 357.82 221.76
  L 356.07 239.50
  Q 356.02 240.00 356.52 240.00
  L 391.45 240.00
  Q 391.86 240.00 391.95 239.59
  L 397.95 209.60
  Z"
/>
<path fill="#a97dec" d="
  M 301.35 260.18
  L 303.34 281.23
  A 0.43 0.43 0.0 0 0 303.79 281.62
  L 335.69 279.50
  Q 336.08 279.47 336.12 279.08
  L 337.90 261.04
  Q 338.35 262.22 338.38 260.61
  Q 338.40 260.12 338.89 260.12
  L 352.20 260.12
  Q 352.56 260.12 352.63 260.47
  Q 352.85 261.45 353.81 261.87
  L 352.25 277.83
  Q 352.19 278.40 352.76 278.36
  L 384.01 276.27
  Q 384.62 276.23 384.73 275.64
  L 386.25 268.07
  L 402.51 268.22
  L 401.28 274.57
  Q 401.17 275.14 401.74 275.10
  L 440.78 272.49
  Q 441.32 272.46 441.43 271.93
  L 442.27 267.77
  L 458.57 267.84
  Q 457.27 274.41 455.80 281.24
  C 454.51 287.18 450.65 287.89 444.88 288.27
  Q 330.38 295.81 216.00 303.55
  L 200.00 304.15
  Q 200.05 301.91 199.99 299.21
  Q 199.94 296.82 199.25 294.38
  Q 195.61 281.41 191.86 268.06
  Q 200.39 267.33 208.58 268.62
  L 213.79 287.08
  Q 213.94 287.61 214.49 287.57
  L 238.97 285.94
  Q 239.45 285.91 239.36 285.43
  L 236.30 269.29
  L 237.21 268.26
  Q 237.55 267.87 238.07 267.86
  L 252.21 267.63
  L 255.42 284.35
  A 0.58 0.58 0.0 0 0 256.02 284.81
  L 286.98 282.75
  Q 287.46 282.72 287.42 282.24
  L 285.36 260.35
  L 301.35 260.18
  Z"
/>
<path fill="#a97dec" d="
  M 179.14 277.96
  Q 181.44 285.98 183.72 294.00
  Q 184.37 296.27 183.96 305.03
  Q 183.87 307.05 182.50 307.11
  Q 179.35 307.24 168.01 307.04
  C 168.00 302.43 168.34 298.51 167.13 294.11
  Q 164.83 285.77 162.42 277.52
  L 164.28 276.34
  Q 164.72 276.06 165.23 276.14
  Q 171.71 277.18 178.27 276.86
  A 0.46 0.46 0.0 0 1 178.52 277.73
  Q 178.37 277.81 178.26 277.87
  Q 178.10 277.94 178.26 278.02
  Q 178.68 278.23 179.14 277.96
  Z"
/>
<path fill="#7b92eb" d="
  M 216.00 303.55
  L 216.02 335.47
  Q 216.02 336.00 216.55 336.00
  Q 341.61 336.00 466.65 336.00
  C 477.60 336.00 485.36 337.42 491.46 346.00
  Q 496.91 353.69 495.84 362.94
  Q 488.64 361.49 480.77 362.29
  Q 480.22 362.34 480.11 361.80
  L 480.00 361.22
  C 480.29 353.96 475.81 352.00 469.19 352.00
  Q 338.84 352.00 208.50 352.00
  C 200.89 352.00 200.00 346.34 200.00 339.80
  Q 200.00 322.37 200.00 304.15
  L 216.00 303.55
  Z"
/>
<path fill="#7b92eb" d="
  M 183.96 305.03
  L 183.98 361.77
  Q 176.15 362.62 168.01 361.81
  L 168.01 307.04
  Q 179.35 307.24 182.50 307.11
  Q 183.87 307.05 183.96 305.03
  Z"
/>
<path fill="#619eeb" d="
  M 183.98 361.77
  L 184.02 367.48
  Q 184.02 368.00 184.54 368.00
  Q 328.02 368.00 471.50 368.00
  Q 478.21 368.00 480.00 361.22
  L 480.11 361.80
  Q 480.22 362.34 480.77 362.29
  Q 488.64 361.49 495.84 362.94
  Q 492.98 378.13 478.99 382.99
  Q 478.38 383.20 478.84 383.67
  Q 486.98 391.89 491.74 402.50
  Q 491.39 403.02 491.29 403.64
  Q 491.21 404.15 490.69 404.16
  L 475.07 404.55
  C 458.64 377.44 421.42 376.91 405.04 404.36
  L 387.85 403.78
  Q 392.26 392.54 400.46 384.51
  A 0.30 0.30 0.0 0 0 400.25 384.00
  L 231.76 384.00
  A 0.31 0.31 0.0 0 0 231.54 384.53
  Q 244.07 396.95 247.25 415.08
  Q 238.85 414.30 231.19 415.49
  C 223.58 385.05 188.90 374.04 164.94 394.43
  Q 161.39 397.45 157.72 403.19
  L 140.21 402.61
  Q 148.90 382.86 167.50 373.70
  Q 167.97 373.46 167.97 372.94
  L 168.01 361.81
  Q 176.15 362.62 183.98 361.77
  Z"
/>
<path fill="#619eeb" d="
  M 214.39 415.21
  L 169.89 414.78
  C 175.93 401.81 190.70 396.01 203.19 402.84
  Q 211.14 407.18 214.39 415.21
  Z"
/>
<path fill="#619eeb" d="
  M 462.24 414.86
  L 417.95 414.66
  Q 423.18 403.46 433.25 401.01
  Q 452.85 396.23 462.24 414.86
  Z"
/>
<path fill="#39b0ea" d="
  M 140.21 402.61
  L 157.72 403.19
  Q 146.72 423.01 156.72 442.97
  L 139.34 443.36
  Q 132.19 422.59 140.21 402.61
  Z"
/>
<path fill="#39b0ea" d="
  M 491.74 402.50
  Q 502.31 430.93 486.36 455.39
  Q 475.79 454.28 465.78 455.23
  A 0.32 0.32 0.0 0 0 465.67 455.84
  Q 465.79 455.89 465.96 455.83
  Q 466.49 455.63 466.12 455.85
  Q 465.13 456.47 463.84 456.19
  C 480.45 443.37 484.11 423.23 475.07 404.55
  L 490.69 404.16
  Q 491.21 404.15 491.29 403.64
  Q 491.39 403.02 491.74 402.50
  Z"
/>
<path fill="#39b0ea" d="
  M 405.04 404.36
  Q 394.37 425.31 406.07 445.29
  L 388.18 445.28
  Q 380.01 424.32 387.85 403.78
  L 405.04 404.36
  Z"
/>
<path fill="#39b0ea" d="
  M 169.89 414.78
  L 214.39 415.21
  Q 217.84 426.51 213.17 435.24
  C 204.18 452.07 181.20 451.92 171.40 436.14
  Q 165.51 426.63 169.89 414.78
  Z
  M 200.00 424.00
  A 8.00 8.00 0.0 0 0 192.00 416.00
  A 8.00 8.00 0.0 0 0 184.00 424.00
  A 8.00 8.00 0.0 0 0 192.00 432.00
  A 8.00 8.00 0.0 0 0 200.00 424.00
  Z"
/>
<path fill="#39b0ea" d="
  M 417.95 414.66
  L 462.24 414.86
  C 469.09 432.93 454.15 450.93 435.38 447.55
  Q 428.40 446.29 423.47 441.34
  Q 412.02 429.85 417.95 414.66
  Z
  M 447.99 423.99
  A 8.00 8.00 0.0 0 0 439.99 415.99
  A 8.00 8.00 0.0 0 0 431.99 423.99
  A 8.00 8.00 0.0 0 0 439.99 431.99
  A 8.00 8.00 0.0 0 0 447.99 423.99
  Z"
/>
<path fill="#39b0ea" d="
  M 247.25 415.08
  Q 250.45 437.07 238.41 455.35
  Q 226.48 453.72 215.88 456.14
  Q 235.28 440.78 231.19 415.49
  Q 238.85 414.30 247.25 415.08
  Z"
/>
<path fill="#1ebce9" d="
  M 156.72 442.97
  Q 162.95 454.34 173.83 459.66
  Q 195.41 470.23 215.88 456.14
  Q 226.48 453.72 238.41 455.35
  C 211.84 493.89 156.08 485.52 139.34 443.36
  L 156.72 442.97
  Z"
/>
<path fill="#1ebce9" d="
  M 406.07 445.29
  C 419.00 465.31 444.24 469.63 463.84 456.19
  Q 465.13 456.47 466.12 455.85
  Q 466.49 455.63 465.96 455.83
  Q 465.79 455.89 465.67 455.84
  A 0.32 0.32 0.0 0 1 465.78 455.23
  Q 475.79 454.28 486.36 455.39
  C 460.34 492.51 406.15 486.45 388.18 445.28
  L 406.07 445.29
  Z"
/>
</svg>
